<svg width="57" height="57" viewBox="0 0 57 57" fill="none" xmlns="http://www.w3.org/2000/svg">
<g id="loader">
<path id="Ellipse 3" d="M44.3048 46.6225C41.9329 48.6981 39.1755 50.2861 36.19 51.2959C33.2044 52.3058 30.0492 52.7177 26.9044 52.5082C23.7597 52.2986 20.687 51.4718 17.8618 50.0747C15.0366 48.6777 12.5142 46.7379 10.4387 44.366C8.36322 41.9942 6.7752 39.2368 5.76534 36.2512C4.75548 33.2657 4.34356 30.1104 4.5531 26.9657C4.76263 23.8209 5.58952 20.7483 6.98655 17.9231C8.38358 15.0979 10.3234 12.5755 12.6952 10.5C15.0671 8.4245 17.8245 6.83648 20.8101 5.82662C23.7956 4.81676 26.9508 4.40484 30.0956 4.61438C33.2403 4.82391 36.313 5.6508 39.1382 7.04783C41.9634 8.44486 44.4858 10.3847 46.5613 12.7565C48.6368 15.1284 50.2248 17.8858 51.2347 20.8713C52.2445 23.8569 52.6564 27.0121 52.4469 30.1569C52.2374 33.3016 51.4105 36.3743 50.0134 39.1995C48.6164 42.0247 46.6766 44.547 44.3048 46.6226L44.3048 46.6225Z" stroke="#DDDDDD" stroke-width="8"/>
<path id="Ellipse 4" d="M52.5 28.5613C52.5 22.7114 50.3635 17.063 46.4919 12.6776C42.6204 8.29222 37.2805 5.4718 31.4758 4.74648" stroke="#15D46D" stroke-width="8" stroke-linecap="round"/>
</g>
</svg>
