<svg width="13" height="14" viewBox="0 0 13 14" fill="none" xmlns="http://www.w3.org/2000/svg">
<g id="logo-icon-green">
<path id="Combined Shape" fill-rule="evenodd" clip-rule="evenodd" d="M11.7554 10.8194C10.5742 12.4439 8.65909 13.5 6.49741 13.5C2.90899 13.5 0 10.5899 0 7C0 3.41015 2.90899 0.5 6.49741 0.5C8.64207 0.5 10.544 1.5395 11.7273 3.14233L9.63657 4.68703C8.92668 3.7244 7.78494 3.1 6.49742 3.1C4.34436 3.1 2.59897 4.84609 2.59897 7C2.59897 9.15391 4.34436 10.9 6.49742 10.9C7.80197 10.9 8.95685 10.259 9.66451 9.2746L11.7554 10.8194ZM12.9843 7.37383C12.9913 7.25011 12.9948 7.12547 12.9948 7C12.9948 6.87453 12.9913 6.74989 12.9843 6.62617V7.37383ZM7.7399 7C7.7399 7.71797 7.17132 8.3 6.46995 8.3C5.76858 8.3 5.2 7.71797 5.2 7C5.2 6.28203 5.76858 5.7 6.46995 5.7C7.17132 5.7 7.7399 6.28203 7.7399 7Z" fill="#15D46D"/>
</g>
</svg>
