<svg width="96" height="25" viewBox="0 0 96 25" fill="none" xmlns="http://www.w3.org/2000/svg">
<g id="logo-dark-green">
<path id="chappme" fill-rule="evenodd" clip-rule="evenodd" d="M6.68993 16.171C8.63668 16.171 9.5019 14.7849 9.5019 14.7849L11.4006 16.6967C11.4006 16.6967 9.76627 18.8475 6.68993 18.8475C3.27711 18.8475 0.561279 16.2188 0.561279 12.897C0.561279 9.55143 3.27711 6.94664 6.68993 6.94664C9.74224 6.94664 11.3525 9.04959 11.3525 9.04959L9.35769 10.818C9.35769 10.818 8.42037 9.62313 6.68993 9.62313C4.74318 9.62313 3.49342 11.1287 3.49342 12.897C3.49342 14.6654 4.74318 16.171 6.68993 16.171ZM19.2356 6.94664C21.4468 6.94664 23.4175 8.49996 23.4175 11.2242V18.5607H20.5335V11.9412C20.5335 10.3161 19.524 9.62313 18.2743 9.62313C16.7842 9.62313 16.0151 11.1048 16.0151 11.1048V18.5607H13.131V0.494385H16.0151V8.59554C16.0151 8.59554 17.0245 6.94664 19.2356 6.94664ZM36.7083 7.2334H34.0405V8.71503C34.0405 8.71503 32.983 6.94664 30.6037 6.94664C27.6475 6.94664 25.0518 9.40805 25.0518 12.897C25.0518 16.386 27.6475 18.8475 30.6037 18.8475C33.0551 18.8475 34.0405 17.0791 34.0405 17.0791V18.5607H36.7083V7.2334ZM31.1324 9.62313C32.983 9.62313 33.8242 11.2003 33.8242 11.2003V14.5938C33.8242 14.5938 32.983 16.171 31.1324 16.171C29.1857 16.171 27.984 14.761 27.984 12.897C27.984 11.0331 29.1857 9.62313 31.1324 9.62313ZM41.7795 7.2334H39.1117V24.0571H41.9958V17.3897C42.3803 17.8677 43.4138 18.8475 45.2163 18.8475C48.1725 18.8475 50.7681 16.386 50.7681 12.897C50.7681 9.40805 48.1725 6.94664 45.2163 6.94664C42.861 6.94664 41.7795 8.71503 41.7795 8.71503V7.2334ZM41.9958 14.5938V11.2003C41.9958 11.2003 42.8129 9.62313 44.7116 9.62313C46.6583 9.62313 47.836 11.0331 47.836 12.897C47.836 14.761 46.6583 16.171 44.7116 16.171C42.8129 16.171 41.9958 14.5938 41.9958 14.5938ZM55.0702 7.2334H52.4025V24.0571H55.2865V17.3897C55.6711 17.8677 56.7045 18.8475 58.5071 18.8475C61.4632 18.8475 64.0589 16.386 64.0589 12.897C64.0589 9.40805 61.4632 6.94664 58.5071 6.94664C56.1517 6.94664 55.0702 8.71503 55.0702 8.71503V7.2334ZM55.2865 14.5938V11.2003C55.2865 11.2003 56.1037 9.62313 58.0024 9.62313C59.9491 9.62313 61.1268 11.0331 61.1268 12.897C61.1268 14.761 59.9491 16.171 58.0024 16.171C56.1037 16.171 55.2865 14.5938 55.2865 14.5938Z" fill="#07152A"/>
<path id="Combined Shape" fill-rule="evenodd" clip-rule="evenodd" d="M78.9119 6.94653C76.247 6.94653 75.2849 8.9257 75.2828 8.93L75.2828 8.92999C75.2806 8.92467 74.486 6.94653 71.7498 6.94653C69.4185 6.94653 68.385 8.88221 68.385 8.88221V7.2333H65.6932V18.5606H68.5773V11.0808C68.5773 11.0808 69.2983 9.62302 70.8125 9.62302C72.2545 9.62302 72.8553 10.4594 72.8553 12.0127V18.5606H75.7394V11.0808C75.7394 11.0808 76.4604 9.62302 77.9746 9.62302C79.4166 9.62302 80.0175 10.4594 80.0175 12.0127V18.5606H82.9015V11.2719C82.9015 8.54765 81.2192 6.94653 78.9119 6.94653ZM96 12.8491C96 9.36015 93.3803 6.94653 90.2559 6.94653C86.9633 6.94653 84.5358 9.57523 84.5358 12.8969C84.5358 16.2187 87.2036 18.8474 90.6645 18.8474C93.4284 18.8474 95.2309 17.2223 95.2309 17.2223L93.7889 15.0716C93.7889 15.0716 92.6593 16.2187 90.6645 16.2187C88.8619 16.2187 87.6843 14.9282 87.468 13.9245H95.976C96 13.4944 96 13.0642 96 12.8491ZM93.1159 11.8455H87.468C87.5641 10.8418 88.4053 9.55133 90.2559 9.55133C92.1546 9.55133 93.0679 10.8657 93.1159 11.8455Z" fill="#15D46D"/>
</g>
</svg>
