<svg width="87" height="24" viewBox="0 0 87 24" fill="none" xmlns="http://www.w3.org/2000/svg">
<g id="noon-logo-en 1" clip-path="url(#clip0_109_645)">
<path id="Vector" d="M81.3204 4.83911C79.778 4.83911 78.3779 5.33795 77.3043 6.25635L76.995 5.1678H74.2729V18.8531H77.7332V11.4172C77.7332 9.83445 78.8004 8.2307 80.8376 8.2307C82.4317 8.2307 83.3812 9.34725 83.3812 11.2144V18.8554H86.8416V10.9626C86.8416 7.2424 84.6756 4.83911 81.3204 4.83911ZM53.6629 11.9999C53.6629 14.1841 52.2302 15.7692 50.2539 15.7692C48.2775 15.7692 46.845 14.1841 46.845 11.9999C46.845 9.8158 48.2775 8.2307 50.2539 8.2307C52.2277 8.2307 53.6629 9.8158 53.6629 11.9999ZM50.2515 4.83911C46.3714 4.83911 43.3306 7.98365 43.3306 11.9976C43.3306 16.0116 46.369 19.1584 50.2515 19.1584C54.1316 19.1584 57.1726 16.0139 57.1726 11.9976C57.1726 7.98365 54.1341 4.83911 50.2515 4.83911ZM68.7848 11.9999C68.7848 14.1841 67.3496 15.7692 65.3757 15.7692C63.4019 15.7692 61.9666 14.1841 61.9666 11.9999C61.9666 9.8158 63.4019 8.2307 65.3757 8.2307C67.3521 8.2307 68.7848 9.8158 68.7848 11.9999ZM65.3757 4.83911C61.4954 4.83911 58.4549 7.98365 58.4549 11.9976C58.4549 16.0116 61.4934 19.1584 65.3757 19.1584C69.256 19.1584 72.2965 16.0139 72.2965 11.9976C72.2965 7.98365 69.258 4.83911 65.3757 4.83911ZM35.8353 4.83911C34.295 4.83911 32.893 5.33795 31.8169 6.25635L31.5074 5.1678H28.7878V18.8531H32.2483V11.4172C32.2483 9.83445 33.315 8.2307 35.3524 8.2307C36.9466 8.2307 37.8961 9.34725 37.8961 11.2144V18.8554H41.3565V10.9626C41.3565 7.2424 39.1903 4.83911 35.8353 4.83911Z" fill="black"/>
<path id="Vector_2" d="M0 12.5688C0 19.0023 5.50016 24 11.8935 24C18.587 24 24.0121 18.6317 24.0121 12.0746C24.0121 8.2401 22.1459 4.87413 19.3842 2.62471L17.3679 6.0886C19.0348 7.49885 20.1789 9.676 20.1789 12.1258C20.1789 16.5781 16.4723 20.2401 11.8935 20.2401C7.34054 20.2401 3.63159 16.5781 3.63159 12.0023C3.63159 11.4569 3.68083 10.9138 3.78164 10.394L0 12.5688ZM15.626 0.594405C14.4818 0.172494 13.462 0 12.4422 0C11.6708 0 10.998 0.097902 10.5009 0.198135L7.91262 4.65035C8.85745 4.10722 10.0766 3.80886 11.3965 3.80886C12.1678 3.80886 12.8641 3.90676 13.5862 4.1049L15.626 0.594405Z" fill="black"/>
</g>
<defs>
<clipPath id="clip0_109_645">
<rect width="87" height="24" fill="white"/>
</clipPath>
</defs>
</svg>
