<svg width="14" height="14" viewBox="0 0 14 14" fill="none" xmlns="http://www.w3.org/2000/svg">
<g id="paypal-p-svgrepo-com 1" clip-path="url(#clip0_109_658)">
<path id="Vector" d="M12.9675 5.0468C13.0072 5.26263 13.0299 5.51055 13.0299 5.76371C13.0299 6.07405 12.9955 6.3768 12.9308 6.66788L12.936 6.64046C12.483 8.9528 11.0116 10.109 8.52193 10.109H8.17776C8.17601 10.109 8.17426 10.109 8.17193 10.109C8.04185 10.109 7.92285 10.158 7.83301 10.2385L7.8336 10.2379C7.73793 10.3219 7.67026 10.4362 7.64751 10.5663L7.64693 10.5698L7.61543 10.718L7.18551 13.4211L7.17035 13.5384C7.14643 13.6725 7.07701 13.7875 6.9796 13.8697L6.97901 13.8703C6.88743 13.9508 6.76668 13.9998 6.63426 13.9998C6.63368 13.9998 6.6331 13.9998 6.63251 13.9998H4.67251C4.66843 13.9998 4.66376 14.0004 4.6591 14.0004C4.56051 14.0004 4.47301 13.9549 4.41585 13.8837L4.41526 13.8831C4.36801 13.8236 4.33943 13.7478 4.33943 13.665C4.33943 13.6434 4.34118 13.6218 4.34526 13.6008L4.34468 13.6031C4.39174 13.3115 4.46076 12.874 4.55176 12.2906C4.64276 11.7073 4.71179 11.2698 4.75885 10.9781C4.8059 10.6865 4.87629 10.2509 4.97001 9.67146C5.06374 9.09202 5.13412 8.65646 5.18118 8.3648C5.1876 8.20263 5.32001 8.07371 5.48276 8.07371C5.49501 8.07371 5.50668 8.0743 5.51835 8.07605H5.51718H6.53976C6.60568 8.0778 6.68268 8.07896 6.76026 8.07896C7.33485 8.07896 7.89543 8.0183 8.4356 7.90221L8.3831 7.91155C9.25518 7.73538 10.0147 7.33871 10.6272 6.7828L10.6231 6.7863C11.1644 6.26713 11.5803 5.62196 11.8242 4.89746L11.8341 4.86421C11.9397 4.57546 12.0342 4.22605 12.1013 3.8673L12.1077 3.8253C12.1094 3.80313 12.1164 3.7833 12.1275 3.7658C12.1328 3.76055 12.1398 3.75763 12.1479 3.75763C12.1508 3.75763 12.1532 3.75821 12.1555 3.7588C12.1736 3.7658 12.1888 3.77513 12.2022 3.7868C12.6023 4.08663 12.8818 4.52821 12.9658 5.03571L12.9675 5.0468ZM11.6235 2.84355C11.6083 3.50971 11.4777 4.14146 11.2513 4.7248L11.2642 4.68688C10.9019 5.83955 10.0357 6.73846 8.93085 7.13921L8.9046 7.14738C8.31776 7.35388 7.64051 7.47346 6.93585 7.47405H6.93526C6.93526 7.47949 6.70076 7.48221 6.23176 7.48221L5.52826 7.47405C5.5026 7.47113 5.47226 7.46938 5.44193 7.46938C5.00793 7.46938 4.65093 7.79838 4.6066 8.22013L4.60601 8.22363C4.5959 8.26524 4.37462 9.64541 3.94218 12.3641C3.94101 12.4079 3.90485 12.4429 3.8611 12.4429C3.85701 12.4429 3.85235 12.4423 3.84826 12.4417H1.54468C1.33643 12.4411 1.16785 12.2725 1.16785 12.0643C1.16785 12.0456 1.16901 12.0275 1.17193 12.01V12.0118L2.98435 0.519547C3.01001 0.368464 3.0876 0.23838 3.19785 0.146797L3.19901 0.146214C3.3046 0.0540469 3.44401 -0.00195312 3.59626 -0.00195312H3.59801H8.26993C8.54585 0.00913021 8.80718 0.0458802 9.05918 0.10538L9.03118 0.0995469C9.36601 0.165464 9.65768 0.251797 9.93768 0.362047L9.9021 0.349797C10.4283 0.538797 10.864 0.872464 11.1738 1.30296L11.179 1.31055C11.4567 1.72121 11.6218 2.22696 11.6218 2.7718C11.6218 2.7963 11.6212 2.8208 11.6206 2.8453V2.8418L11.6235 2.84355Z" fill="black"/>
</g>
<defs>
<clipPath id="clip0_109_658">
<rect width="14" height="14" fill="white"/>
</clipPath>
</defs>
</svg>
